<svg width="24" height="24" viewBox="0 0 24 24" fill="none" xmlns="http://www.w3.org/2000/svg">
<mask id="mask0_52_77" style="mask-type:alpha" maskUnits="userSpaceOnUse" x="0" y="0" width="24" height="24">
<rect width="24" height="24" fill="#D9D9D9"/>
</mask>
<g mask="url(#mask0_52_77)">
<path d="M9.23076 18.596V16.5095H6.03076C5.72959 16.5095 5.51868 16.3739 5.39801 16.1027C5.27751 15.8316 5.31951 15.5883 5.52401 15.373L11.327 9.00375C11.5062 8.80258 11.7301 8.702 11.9988 8.702C12.2676 8.702 12.4923 8.80258 12.673 9.00375L18.476 15.373C18.6805 15.5883 18.7225 15.8316 18.602 16.1027C18.4813 16.3739 18.2704 16.5095 17.9693 16.5095H14.7693V18.596C14.7693 18.8522 14.6826 19.0668 14.5093 19.24C14.3361 19.4133 14.1214 19.5 13.8653 19.5H10.1348C9.87859 19.5 9.66393 19.4133 9.49076 19.24C9.31743 19.0668 9.23076 18.8522 9.23076 18.596ZM10.7308 18.0095H13.2693V15.9135C13.2693 15.6573 13.3558 15.4427 13.529 15.2695C13.7023 15.0962 13.917 15.0095 14.173 15.0095H16.1173L12 10.5095L7.88276 15.0095H9.82701C10.083 15.0095 10.2977 15.0962 10.471 15.2695C10.6442 15.4427 10.7308 15.6573 10.7308 15.9135V18.0095ZM12 5.625L6.74426 11.3962C6.66959 11.4696 6.58259 11.5277 6.48326 11.5705C6.38376 11.6132 6.28426 11.6345 6.18476 11.6345C5.86159 11.6345 5.63334 11.4893 5.50001 11.199C5.36668 10.9087 5.40959 10.6385 5.62876 10.3885L11.327 4.12875C11.5062 3.92758 11.7301 3.827 11.9988 3.827C12.2676 3.827 12.4923 3.92758 12.673 4.12875L18.3713 10.3885C18.5839 10.6385 18.6268 10.9087 18.5 11.199C18.373 11.4893 18.1443 11.6345 17.814 11.6345C17.7123 11.6345 17.6123 11.6162 17.514 11.5795C17.4157 11.5428 17.3296 11.4817 17.2558 11.3962L12 5.625Z" fill="currentColor"/>
</g>
</svg>
