<svg width="14" height="14" viewBox="0 0 24 24" fill="none" xmlns="http://www.w3.org/2000/svg">
<path d="M11.25 7.373L6.08076 12.5422C5.93209 12.6909 5.75809 12.7643 5.55876 12.7625C5.35942 12.7605 5.18217 12.682 5.02701 12.527C4.88217 12.3718 4.80717 12.1962 4.80201 12C4.79684 11.8038 4.87184 11.6282 5.02701 11.473L11.3673 5.13275C11.4609 5.03908 11.5597 4.97308 11.6635 4.93475C11.7673 4.89625 11.8795 4.877 12 4.877C12.1205 4.877 12.2327 4.89625 12.3365 4.93475C12.4403 4.97308 12.5391 5.03908 12.6328 5.13275L18.973 11.473C19.1115 11.6115 19.1823 11.783 19.1855 11.9875C19.1887 12.192 19.1178 12.3718 18.973 12.527C18.8178 12.682 18.6397 12.7595 18.4385 12.7595C18.2372 12.7595 18.0589 12.682 17.9038 12.527L12.75 7.373V18.75C12.75 18.9628 12.6782 19.141 12.5345 19.2845C12.391 19.4282 12.2128 19.5 12 19.5C11.7872 19.5 11.609 19.4282 11.4655 19.2845C11.3218 19.141 11.25 18.9628 11.25 18.75V7.373Z" fill="currentColor"/>
</svg>
